
<svg xmlns="http://www.w3.org/2000/svg" viewBox="0 0 512 512">
  <path fill="#4a96da" d="M256 0C114.6 0 0 114.6 0 256s114.6 256 256 256 256-114.6 256-256S397.4 0 256 0zm0 464c-114.7 0-208-93.31-208-208S141.3 48 256 48s208 93.31 208 208-93.3 208-208 208z"/>
  <circle fill="#4a96da" cx="160" cy="180" r="30"/>
  <circle fill="#4a96da" cx="230" cy="130" r="30"/>
  <circle fill="#4a96da" cx="290" cy="130" r="30"/>
  <circle fill="#4a96da" cx="360" cy="180" r="30"/>
  <path fill="#4a96da" d="M256 250c-47.9 0-105.9 33.3-115.9 94.2-2.3 14.8 1.6 29.8 10.7 41.3 9.2 11.5 22.8 18.5 37.9 18.5h134.6c15.1 0 28.7-6.6 37.9-18.5 9.1-11.5 13-26.5 10.7-41.3C361.9 283.3 303.9 250 256 250z"/>
</svg>
